<svg xmlns="http://www.w3.org/2000/svg" data-name="Layer 1" viewBox="0 0 100 125" x="0px" y="0px"><title>Artboard 41</title><path d="M79.24,6.27H20.76a17,17,0,0,0-17,17V76.73a17,17,0,0,0,17,17H79.24a17,17,0,0,0,17-17V23.27A17,17,0,0,0,79.24,6.27ZM30.84,71.93a5,5,0,0,1-5,5H21.21a5,5,0,0,1-5-5V69a5,5,0,0,1,5-5h4.63a5,5,0,0,1,5,5Zm0-20.48a5,5,0,0,1-5,5H21.21a5,5,0,0,1-5-5v-2.9a5,5,0,0,1,5-5h4.63a5,5,0,0,1,5,5Zm0-20.49a5,5,0,0,1-5,5H21.21a5,5,0,0,1-5-5V28.07a5,5,0,0,1,5-5h4.63a5,5,0,0,1,5,5Zm53.47,41a5,5,0,0,1-5,5H39.15a5,5,0,0,1-5-5V69a5,5,0,0,1,5-5H79.31a5,5,0,0,1,5,5Zm0-20.48a5,5,0,0,1-5,5H39.15a5,5,0,0,1-5-5v-2.9a5,5,0,0,1,5-5H79.31a5,5,0,0,1,5,5Zm0-20.49a5,5,0,0,1-5,5H39.15a5,5,0,0,1-5-5V28.07a5,5,0,0,1,5-5H79.31a5,5,0,0,1,5,5Z"/><text x="0" y="115" fill="#000000" font-size="5px" font-weight="bold" font-family="'Helvetica Neue', Helvetica, Arial-Unicode, Arial, Sans-serif">Created by Riky Rodríguez</text><text x="0" y="120" fill="#000000" font-size="5px" font-weight="bold" font-family="'Helvetica Neue', Helvetica, Arial-Unicode, Arial, Sans-serif">from the Noun Project</text></svg>