<svg xmlns="http://www.w3.org/2000/svg" data-name="Layer 1" viewBox="0 0 100 125" x="0px" y="0px"><title>Artboard 22</title><path d="M85,23.07a5,5,0,0,1,5,5V31a5,5,0,0,1-5,5H34.41a5,5,0,0,1-5-5V28.07a5,5,0,0,1,5-5H85m0-2H34.41a7,7,0,0,0-7,7V31a7,7,0,0,0,7,7H85a7,7,0,0,0,7-7V28.07a7,7,0,0,0-7-7Z"/><path d="M85,43.55a5,5,0,0,1,5,5v2.9a5,5,0,0,1-5,5H34.41a5,5,0,0,1-5-5v-2.9a5,5,0,0,1,5-5H85m0-2H34.41a7,7,0,0,0-7,7v2.9a7,7,0,0,0,7,7H85a7,7,0,0,0,7-7v-2.9a7,7,0,0,0-7-7Z"/><path d="M85,64a5,5,0,0,1,5,5v2.89a5,5,0,0,1-5,5H34.41a5,5,0,0,1-5-5V69a5,5,0,0,1,5-5H85m0-2H34.41a7,7,0,0,0-7,7v2.89a7,7,0,0,0,7,7H85a7,7,0,0,0,7-7V69a7,7,0,0,0-7-7Z"/><path d="M18.1,23.07a5,5,0,0,1,5,5V31a5,5,0,0,1-5,5H13.46a5,5,0,0,1-5-5V28.07a5,5,0,0,1,5-5H18.1m0-2H13.46a7,7,0,0,0-7,7V31a7,7,0,0,0,7,7H18.1a7,7,0,0,0,7-7V28.07a7,7,0,0,0-7-7Z"/><path d="M18.1,43.55a5,5,0,0,1,5,5v2.9a5,5,0,0,1-5,5H13.46a5,5,0,0,1-5-5v-2.9a5,5,0,0,1,5-5H18.1m0-2H13.46a7,7,0,0,0-7,7v2.9a7,7,0,0,0,7,7H18.1a7,7,0,0,0,7-7v-2.9a7,7,0,0,0-7-7Z"/><path d="M18.1,64a5,5,0,0,1,5,5v2.89a5,5,0,0,1-5,5H13.46a5,5,0,0,1-5-5V69a5,5,0,0,1,5-5H18.1m0-2H13.46a7,7,0,0,0-7,7v2.89a7,7,0,0,0,7,7H18.1a7,7,0,0,0,7-7V69a7,7,0,0,0-7-7Z"/><text x="0" y="115" fill="#000000" font-size="5px" font-weight="bold" font-family="'Helvetica Neue', Helvetica, Arial-Unicode, Arial, Sans-serif">Created by Riky Rodríguez</text><text x="0" y="120" fill="#000000" font-size="5px" font-weight="bold" font-family="'Helvetica Neue', Helvetica, Arial-Unicode, Arial, Sans-serif">from the Noun Project</text></svg>