<svg xmlns="http://www.w3.org/2000/svg" xmlns:xlink="http://www.w3.org/1999/xlink" version="1.1" x="0px" y="0px" viewBox="0 0 64 80" style="enable-background:new 0 0 64 64;" xml:space="preserve"><rect x="30" y="50" width="5" height="2"/><path d="M60,12.828c0-1.577-0.905-2.933-2.363-3.536c-1.458-0.606-3.056-0.288-4.173,0.829L50,13.586V7c0-2.757-2.243-5-5-5H21  c-2.757,0-5,2.243-5,5v17.026C15.162,23.391,14.13,23,13,23h-2c-0.552,0-1,0.447-1,1v38h2V25h1c1.654,0,3,1.346,3,3v23  c0,2.757,2.243,5,5,5h18v6h2v-6h4c2.757,0,5-2.243,5-5v-8h1c1.654,0,3-1.346,3-3v-2c0-0.771-0.301-1.468-0.78-2  c0.48-0.532,0.78-1.229,0.78-2v-2c0-0.771-0.301-1.468-0.78-2c0.48-0.532,0.78-1.229,0.78-2v-2c0-1.526-1.149-2.775-2.624-2.962  l7.502-7.503C59.602,14.812,60,13.852,60,12.828z M21,4h24c1.654,0,3,1.346,3,3v1H18V7C18,5.346,19.346,4,21,4z M45,54h-5H21  c-1.654,0-3-1.346-3-3v-3h30v3C48,52.654,46.654,54,45,54z M48,46H18V28V10h30v6v7h-1c-2.206,0-4,1.794-4,4  c0,1.201,0.542,2.266,1.382,3C43.542,30.734,43,31.799,43,33s0.542,2.266,1.382,3C43.542,36.734,43,37.799,43,39  c0,2.206,1.794,4,4,4h1V46z M52,32v2c0,0.552-0.449,1-1,1h-4c-1.103,0-2-0.897-2-2s0.897-2,2-2h4C51.551,31,52,31.448,52,32z M52,40  c0,0.552-0.449,1-1,1h-4c-1.103,0-2-0.897-2-2s0.897-2,2-2h4c0.551,0,1,0.448,1,1V40z M52,26v2c0,0.552-0.449,1-1,1h-4  c-1.103,0-2-0.897-2-2s0.897-2,2-2h4C51.551,25,52,25.448,52,26z M57.465,14.121C57.464,14.121,57.464,14.121,57.465,14.121  L50,21.586v-5.172l4.878-4.879c0.54-0.54,1.285-0.69,1.993-0.396C57.578,11.432,58,12.063,58,12.828  C58,13.31,57.805,13.78,57.465,14.121z"/><path d="M33,16c-4.962,0-9,4.037-9,9s4.038,9,9,9s9-4.037,9-9S37.962,16,33,16z M33,32c-3.86,0-7-3.141-7-7s3.14-7,7-7s7,3.141,7,7  S36.86,32,33,32z"/><rect x="30" y="22" width="2" height="2"/><rect x="34" y="22" width="2" height="2"/><path d="M33,28c-1.103,0-2-0.897-2-2h-2c0,2.206,1.794,4,4,4s4-1.794,4-4h-2C35,27.103,34.103,28,33,28z"/><text x="0" y="79" fill="#000000" font-size="5px" font-weight="bold" font-family="'Helvetica Neue', Helvetica, Arial-Unicode, Arial, Sans-serif">Created by Becris</text><text x="0" y="84" fill="#000000" font-size="5px" font-weight="bold" font-family="'Helvetica Neue', Helvetica, Arial-Unicode, Arial, Sans-serif">from the Noun Project</text></svg>