<svg xmlns="http://www.w3.org/2000/svg" xmlns:xlink="http://www.w3.org/1999/xlink" version="1.1" x="0px" y="0px" viewBox="0 0 512 640" style="enable-background:new 0 0 512 512;" xml:space="preserve"><g><g><g><g><path d="M455,455.658H57c-18.196,0-33-14.804-33-33v-238c0-18.196,14.804-33,33-33h323.563c2.431,0,4.688,1.261,5.962,3.332      c1.273,2.07,1.383,4.654,0.287,6.824l-20.197,40c-1.191,2.358-3.607,3.845-6.249,3.845H158v196h276v-196h-28.824      c-2.431,0-4.688-1.261-5.962-3.332c-1.273-2.07-1.383-4.654-0.287-6.824l20.197-40c1.191-2.358,3.607-3.845,6.249-3.845H455      c18.196,0,33,14.804,33,33v238C488,440.854,473.196,455.658,455,455.658z M57,165.658c-10.477,0-19,8.523-19,19v238      c0,10.477,8.523,19,19,19h398c10.477,0,19-8.523,19-19v-238c0-10.477-8.523-19-19-19h-25.319l-13.129,26H441      c3.866,0,7,3.134,7,7v210c0,3.866-3.134,7-7,7H151c-3.866,0-7-3.134-7-7v-210c0-3.866,3.134-7,7-7h205.059l13.129-26H57z"/></g><g><path d="M441,415.658H151c-3.866,0-7-3.134-7-7v-210c0-3.866,3.134-7,7-7h209.366c2.431,0,4.688,1.261,5.962,3.332      c1.273,2.07,1.383,4.654,0.287,6.824l-17.748,35.148l-3.045,34.871l26.254-23.152l26.851-53.178      c1.191-2.358,3.607-3.845,6.249-3.845H441c3.866,0,7,3.134,7,7v210C448,412.524,444.866,415.658,441,415.658z M158,401.658h276      v-196h-24.517l-25.518,50.537c-0.401,0.795-0.951,1.505-1.619,2.095l-40.39,35.618c-2.146,1.893-5.229,2.287-7.785,0.999      c-2.555-1.291-4.067-4.006-3.818-6.857l4.684-53.648c0.077-0.887,0.323-1.751,0.725-2.546l13.229-26.197H158V401.658z"/></g><g><path d="M449.828,117.215c-1.061,0-2.138-0.242-3.149-0.753l-35.706-18.029c-3.451-1.742-4.836-5.953-3.094-9.404      c1.743-3.45,5.953-4.837,9.404-3.093l35.706,18.029c3.451,1.742,4.836,5.953,3.094,9.404      C454.851,115.808,452.386,117.215,449.828,117.215z"/></g><g><path d="M337.325,295.658c-1.073,0-2.153-0.247-3.153-0.751c-2.555-1.291-4.067-4.006-3.818-6.857l4.684-53.648      c0.077-0.887,0.323-1.751,0.725-2.546l81.132-160.679c4.62-9.15,13.862-14.834,24.118-14.834c4.19,0,8.394,1.003,12.154,2.902      c13.289,6.71,18.642,22.982,11.932,36.271l-81.132,160.679c-0.401,0.795-0.951,1.505-1.619,2.095l-40.39,35.618      C340.65,295.061,338.996,295.658,337.325,295.658z M348.867,236.962l-3.045,34.871l26.254-23.152L452.6,89.206      c3.231-6.398,0.654-14.233-5.744-17.464c-1.839-0.929-3.806-1.399-5.844-1.399c-4.942,0-9.396,2.737-11.62,7.145      L348.867,236.962z"/></g><g><path d="M449.828,117.215c-1.061,0-2.138-0.242-3.149-0.753l-35.706-18.029c-3.451-1.742-4.836-5.953-3.094-9.404      c1.743-3.45,5.953-4.837,9.404-3.093l35.706,18.029c3.451,1.742,4.836,5.953,3.094,9.404      C454.851,115.808,452.386,117.215,449.828,117.215z"/></g><g><path d="M371,375.658H251c-3.866,0-7-3.134-7-7s3.134-7,7-7h120c7.168,0,13-5.832,13-13s-5.832-13-13-13H231      c-14.888,0-27-12.112-27-27s12.112-27,27-27h70c3.866,0,7,3.134,7,7s-3.134,7-7,7h-70c-7.168,0-13,5.832-13,13s5.832,13,13,13      h140c14.888,0,27,12.112,27,27S385.888,375.658,371,375.658z"/></g><g><path d="M221,378.658c-2.631,0-5.21-1.07-7.07-2.931c-1.86-1.859-2.93-4.439-2.93-7.069s1.069-5.21,2.93-7.07      s4.439-2.93,7.07-2.93c2.63,0,5.21,1.069,7.069,2.93c1.86,1.86,2.931,4.44,2.931,7.07s-1.07,5.21-2.931,7.069      C226.21,377.588,223.63,378.658,221,378.658z"/></g><g><path d="M191,378.658c-2.631,0-5.21-1.07-7.07-2.931c-1.86-1.859-2.93-4.439-2.93-7.069s1.069-5.21,2.93-7.07      s4.439-2.93,7.07-2.93c2.63,0,5.21,1.069,7.069,2.93c1.86,1.86,2.931,4.44,2.931,7.07s-1.07,5.21-2.931,7.069      C196.21,377.588,193.63,378.658,191,378.658z"/></g><g><path d="M111,255.658H71c-3.866,0-7-3.134-7-7v-30c0-3.866,3.134-7,7-7h40c3.866,0,7,3.134,7,7v30      C118,252.524,114.866,255.658,111,255.658z M78,241.658h26v-16H78V241.658z"/></g><g><path d="M481,345.658h-40c-3.866,0-7-3.134-7-7v-30c0-3.866,3.134-7,7-7h40c3.866,0,7,3.134,7,7v30      C488,342.524,484.866,345.658,481,345.658z M448,331.658h26v-16h-26V331.658z"/></g><g><path d="M481,315.658h-40c-3.866,0-7-3.134-7-7v-30c0-3.866,3.134-7,7-7h40c3.866,0,7,3.134,7,7v30      C488,312.524,484.866,315.658,481,315.658z M448,301.658h26v-16h-26V301.658z"/></g><g><path d="M481,285.658h-40c-3.866,0-7-3.134-7-7v-30c0-3.866,3.134-7,7-7h40c3.866,0,7,3.134,7,7v30      C488,282.524,484.866,285.658,481,285.658z M448,271.658h26v-16h-26V271.658z"/></g><g><path d="M111,285.658H71c-3.866,0-7-3.134-7-7v-30c0-3.866,3.134-7,7-7h40c3.866,0,7,3.134,7,7v30      C118,282.524,114.866,285.658,111,285.658z M78,271.658h26v-16H78V271.658z"/></g><g><path d="M111,315.658H71c-3.866,0-7-3.134-7-7v-30c0-3.866,3.134-7,7-7h40c3.866,0,7,3.134,7,7v30      C118,312.524,114.866,315.658,111,315.658z M78,301.658h26v-16H78V301.658z"/></g><g><path d="M111,345.658H71c-3.866,0-7-3.134-7-7v-30c0-3.866,3.134-7,7-7h40c3.866,0,7,3.134,7,7v30      C118,342.524,114.866,345.658,111,345.658z M78,331.658h26v-16H78V331.658z"/></g><g><path d="M111,375.658H71c-3.866,0-7-3.134-7-7v-30c0-3.866,3.134-7,7-7h40c3.866,0,7,3.134,7,7v30      C118,372.524,114.866,375.658,111,375.658z M78,361.658h26v-16H78V361.658z"/></g><g><path d="M361,125.658H121c-3.866,0-7-3.134-7-7s3.134-7,7-7h240c3.866,0,7,3.134,7,7S364.866,125.658,361,125.658z"/></g><g><path d="M191,95.658H31c-3.866,0-7-3.134-7-7s3.134-7,7-7h160c3.866,0,7,3.134,7,7S194.866,95.658,191,95.658z"/></g></g></g></g><text x="0" y="527" fill="#000000" font-size="5px" font-weight="bold" font-family="'Helvetica Neue', Helvetica, Arial-Unicode, Arial, Sans-serif">Created by Flatart</text><text x="0" y="532" fill="#000000" font-size="5px" font-weight="bold" font-family="'Helvetica Neue', Helvetica, Arial-Unicode, Arial, Sans-serif">from the Noun Project</text></svg>